<?xml version="1.0" encoding="utf-8"?>
<!-- Generator: Adobe Illustrator 14.0.0, SVG Export Plug-In . SVG Version: 6.00 Build 43363)  -->
<!DOCTYPE svg PUBLIC "-//W3C//DTD SVG 1.1//EN" "http://www.w3.org/Graphics/SVG/1.1/DTD/svg11.dtd">
<svg version="1.1" id="Layer_1" xmlns="http://www.w3.org/2000/svg" xmlns:xlink="http://www.w3.org/1999/xlink" x="0px" y="0px"
	 width="960px" height="480px" viewBox="0 0 960 480" enable-background="new 0 0 960 480" xml:space="preserve">
<circle opacity="0.1" fill="#FF0303" cx="99.834" cy="365.166" r="42"/>
<circle opacity="0.1" fill="#FF0303" cx="94.168" cy="245.5" r="43.333"/>
<circle opacity="0.1" fill="#FF0303" cx="218.168" cy="257.166" r="45.001"/>
<circle opacity="0.1" fill="#FF0303" cx="217.169" cy="123.167" r="47"/>
<circle opacity="0.1" fill="#FF0303" cx="356.504" cy="130.833" r="49.001"/>
<circle opacity="0.1" fill="#FF0303" cx="351.835" cy="269.499" r="46.668"/>
<circle opacity="0.1" fill="#FF0303" cx="88.334" cy="116.333" r="45.5"/>
<circle opacity="0.1" fill="#FF0303" cx="219.168" cy="380.832" r="43.334"/>
<circle opacity="0.1" fill="#FF0303" cx="347.67" cy="395.997" r="45.501"/>
<path opacity="0.1" fill="#FF0303" d="M381.091,305.848c-8.005,6.45-18.177,10.319-29.257,10.319c-3.253,0-6.427-0.335-9.492-0.968
	c-7.785,7.332-12.653,17.729-12.653,29.267c0,3.197,0.385,6.303,1.09,9.284c5.224-2.091,10.921-3.253,16.892-3.253
	c19.229,0,35.659,11.934,42.321,28.793c12.021-6.951,20.116-19.938,20.116-34.824C410.107,326.146,397.85,310.696,381.091,305.848z"
	/>
<path opacity="0.1" fill="#FF0303" d="M254.886,293.199c-4.62,0-9.05,0.815-13.155,2.307c-2.355,1.45-4.856,2.685-7.472,3.687
	c-10.759,6.835-17.904,18.85-17.904,32.539c0,1.983,0.151,3.932,0.44,5.835c0.786-0.043,1.578-0.067,2.375-0.067
	c20.106,0,37.009,13.695,41.901,32.265c18.34-2.96,32.349-18.857,32.349-38.032C293.418,310.451,276.166,293.199,254.886,293.199z"
	/>
<path opacity="0.1" fill="#FF0303" d="M146.775,282.704c-20.625,0-37.346,16.721-37.346,37.347c0,1.451,0.091,2.88,0.252,4.287
	c15.826,3.805,28.163,16.561,31.346,32.618c1.874,0.29,3.793,0.441,5.748,0.441c20.626,0,37.347-16.721,37.347-37.347
	S167.401,282.704,146.775,282.704z"/>
<path opacity="0.1" fill="#FF0303" d="M374.602,188.488c-21.808,0-39.673,16.826-41.354,38.201
	c5.696-2.477,11.979-3.858,18.586-3.858c23.955,0,43.684,18.051,46.352,41.292c10.82-7.49,17.913-19.983,17.913-34.139
	C416.099,207.067,397.52,188.488,374.602,188.488z"/>
<path opacity="0.1" fill="#FF0303" d="M254.745,180.504c-19.261,0-35.339,13.612-39.151,31.74c0.853-0.048,1.71-0.078,2.574-0.078
	c24.854,0,45.001,20.148,45.001,45c0,0.835-0.026,1.664-0.071,2.488c18.09-3.843,31.663-19.902,31.663-39.136
	C294.761,198.42,276.846,180.504,254.745,180.504z"/>
<path opacity="0.1" fill="#FF0303" d="M143.038,173.14c-18.522,0-33.987,13.072-37.686,30.492
	c18.511,4.932,32.15,21.805,32.15,41.869c0,1.442-0.074,2.868-0.212,4.274c1.875,0.28,3.794,0.429,5.748,0.429
	c21.28,0,38.532-17.253,38.532-38.531C181.569,190.392,164.318,173.14,143.038,173.14z"/>
<path opacity="0.1" fill="#FF0303" d="M379.627,63.364c-15.419,0-28.935,8.131-36.509,20.335c4.256-1.207,8.742-1.866,13.385-1.866
	c27.063,0,49.002,21.939,49.002,49c0,3.636-0.408,7.175-1.159,10.585c11.022-7.774,18.229-20.597,18.229-35.109
	C422.574,82.592,403.347,63.364,379.627,63.364z"/>
<path opacity="0.1" fill="#FF0303" d="M255.481,59.075c-13.915,0-26.229,6.83-33.796,17.312
	c23.838,2.273,42.485,22.347,42.485,46.78c0,6.754-1.436,13.169-4.001,18.974c20.806-2.331,36.981-19.973,36.981-41.398
	C297.15,77.732,278.495,59.075,255.481,59.075z"/>
<path opacity="0.1" fill="#FF0303" d="M179.744,94.744c-0.294-22.091-18.283-39.911-40.444-39.911
	c-14.516,0-27.24,7.649-34.379,19.133c16.923,6.631,28.914,23.094,28.914,42.368c0,6.521-1.382,12.717-3.854,18.326
	c2.993,0.706,6.11,1.091,9.319,1.091c12.401,0,23.493-5.586,30.915-14.372C170.589,111.387,174.076,102.195,179.744,94.744z"/>
<path opacity="0.1" fill="#FF0303" d="M398.496,269.279c0,0.074,0.007,0.146,0.007,0.22c0,14.693-6.798,27.794-17.412,36.349
	c13.247,3.832,23.675,14.291,27.467,27.553c9.244-6.566,15.282-17.352,15.282-29.554C423.84,287.63,413.187,273.904,398.496,269.279
	z"/>
<path opacity="0.1" fill="#FF0303" d="M316.905,300.439c-7.302-8.235-11.738-19.068-11.738-30.94c0-1.003,0.039-1.996,0.102-2.982
	c-6.034-5.064-13.812-8.119-22.308-8.119c-7.668,0-14.752,2.491-20.497,6.7c-1.782,10.02-6.882,18.888-14.121,25.438
	c-0.062,0.854-0.105,1.714-0.105,2.585c0,0.219,0.013,0.435,0.017,0.651c2.154-0.374,4.37-0.572,6.632-0.572
	c19.454,0,35.533,14.421,38.15,33.154C305.014,322.728,314.25,312.807,316.905,300.439z"/>
<path opacity="0.1" fill="#FF0303" d="M212.201,301.761c-22.03-2.921-39.033-21.767-39.033-44.595c0-1.967,0.138-3.901,0.383-5.802
	c-13.31,4.362-22.957,16.795-23.156,31.518c17.924,1.725,32.135,16.116,33.592,34.116c0.017,0,0.033,0.001,0.05,0.001
	C195.824,316.999,206.189,310.935,212.201,301.761z"/>
<path opacity="0.1" fill="#FF0303" d="M394.226,162.084c-8.166,9.853-20.11,16.456-33.619,17.576
	c-2.525,4.045-4.296,8.607-5.122,13.492c5.721-2.978,12.221-4.664,19.117-4.664c22.368,0,40.593,17.7,41.455,39.856
	c8.353-6.858,13.682-17.263,13.682-28.914C429.738,179.41,414.004,163.064,394.226,162.084z"/>
<path opacity="0.1" fill="#FF0303" d="M320.145,191.399c0-19.913-16.145-36.059-36.061-36.059c-16.237,0-29.964,10.736-34.48,25.494
	c1.684-0.216,3.399-0.331,5.142-0.331c22.101,0,40.016,17.916,40.016,40.014c0,1.845-0.127,3.66-0.369,5.438
	C309.283,221.521,320.145,207.731,320.145,191.399z"/>
<path opacity="0.1" fill="#FF0303" d="M149.482,173.687c18.211,3.068,32.087,18.902,32.087,37.985c0,2.633-0.266,5.204-0.769,7.688
	c0.537,0.025,1.076,0.041,1.619,0.041c19.177,0,34.723-15.547,34.723-34.723c0-5.231-1.164-10.188-3.235-14.636
	c-14.558-0.999-27.288-8.624-35.205-19.886C165.011,151.613,153.705,161.028,149.482,173.687z"/>
<path opacity="0.1" fill="#FF0303" d="M397.622,49.28c-13.009,0-24.51,6.425-31.525,16.269c4.254-1.413,8.801-2.185,13.53-2.185
	c23.72,0,42.947,19.229,42.947,42.946c0,4.456-0.686,8.75-1.945,12.789c9.521-7.05,15.695-18.362,15.695-31.118
	C436.324,66.607,418.996,49.28,397.622,49.28z"/>
<path opacity="0.1" fill="#FF0303" d="M297.15,100.742c0,6.87-1.67,13.346-4.615,19.058c8.057-1.584,15.189-5.74,20.503-11.584
	c1.695-3.248,3.741-6.282,6.092-9.051c2.351-4.905,3.668-10.399,3.668-16.201c0-20.735-16.811-37.548-37.55-37.548
	c-11.67,0-22.097,5.326-28.984,13.68C278.915,59.513,297.15,77.994,297.15,100.742z"/>
<path opacity="0.1" fill="#FF0303" d="M179.744,94.744c8.386-11.026,21.532-18.22,36.375-18.547
	c-1.577-18.681-17.229-33.355-36.318-33.355c-11.564,0-21.863,5.39-28.542,13.789C167.595,61.68,179.504,76.804,179.744,94.744z"/>
<circle opacity="0.1" fill="#FF0303" cx="860.166" cy="365.166" r="42"/>
<circle opacity="0.1" fill="#FF0303" cx="865.832" cy="245.5" r="43.334"/>
<circle opacity="0.1" fill="#FF0303" cx="741.832" cy="257.166" r="45"/>
<circle opacity="0.1" fill="#FF0303" cx="742.831" cy="123.167" r="47"/>
<circle opacity="0.1" fill="#FF0303" cx="603.496" cy="130.833" r="49.001"/>
<circle opacity="0.1" fill="#FF0303" cx="608.165" cy="269.499" r="46.668"/>
<circle opacity="0.1" fill="#FF0303" cx="871.666" cy="116.333" r="45.5"/>
<circle opacity="0.1" fill="#FF0303" cx="740.832" cy="380.832" r="43.334"/>
<circle opacity="0.1" fill="#FF0303" cx="612.33" cy="395.997" r="45.501"/>
<path opacity="0.1" fill="#FF0303" d="M578.909,305.848c8.005,6.45,18.177,10.319,29.257,10.319c3.253,0,6.427-0.335,9.492-0.968
	c7.785,7.332,12.653,17.729,12.653,29.267c0,3.197-0.385,6.303-1.09,9.284c-5.224-2.091-10.921-3.253-16.892-3.253
	c-19.229,0-35.659,11.934-42.321,28.793c-12.021-6.951-20.116-19.938-20.116-34.824C549.893,326.146,562.15,310.696,578.909,305.848
	z"/>
<path opacity="0.1" fill="#FF0303" d="M705.114,293.199c4.62,0,9.05,0.815,13.155,2.307c2.355,1.45,4.855,2.685,7.473,3.687
	c10.758,6.835,17.904,18.85,17.904,32.539c0,1.983-0.151,3.932-0.44,5.835c-0.786-0.043-1.577-0.067-2.374-0.067
	c-20.107,0-37.01,13.695-41.901,32.265c-18.34-2.96-32.349-18.857-32.349-38.032C666.582,310.451,683.834,293.199,705.114,293.199z"
	/>
<path opacity="0.1" fill="#FF0303" d="M813.225,282.704c20.626,0,37.347,16.721,37.347,37.347c0,1.451-0.091,2.88-0.253,4.287
	c-15.826,3.805-28.162,16.561-31.346,32.618c-1.873,0.29-3.793,0.441-5.748,0.441c-20.626,0-37.346-16.721-37.346-37.347
	S792.599,282.704,813.225,282.704z"/>
<path opacity="0.1" fill="#FF0303" d="M585.398,188.488c21.808,0,39.673,16.826,41.354,38.201
	c-5.696-2.477-11.979-3.858-18.586-3.858c-23.955,0-43.684,18.051-46.352,41.292c-10.82-7.49-17.913-19.983-17.913-34.139
	C543.901,207.067,562.48,188.488,585.398,188.488z"/>
<path opacity="0.1" fill="#FF0303" d="M705.255,180.504c19.261,0,35.339,13.612,39.151,31.74c-0.853-0.048-1.71-0.078-2.574-0.078
	c-24.854,0-45.001,20.148-45.001,45c0,0.835,0.026,1.664,0.071,2.488c-18.09-3.843-31.663-19.902-31.663-39.136
	C665.239,198.42,683.154,180.504,705.255,180.504z"/>
<path opacity="0.1" fill="#FF0303" d="M816.963,173.14c18.521,0,33.986,13.072,37.686,30.492
	c-18.511,4.932-32.15,21.805-32.15,41.869c0,1.442,0.074,2.868,0.213,4.274c-1.876,0.28-3.795,0.429-5.748,0.429
	c-21.281,0-38.532-17.253-38.532-38.531C778.431,190.392,795.682,173.14,816.963,173.14z"/>
<path opacity="0.1" fill="#FF0303" d="M580.373,63.364c15.419,0,28.935,8.131,36.509,20.335c-4.256-1.207-8.742-1.866-13.385-1.866
	c-27.063,0-49.002,21.939-49.002,49c0,3.636,0.408,7.175,1.159,10.585c-11.022-7.774-18.229-20.597-18.229-35.109
	C537.426,82.592,556.653,63.364,580.373,63.364z"/>
<path opacity="0.1" fill="#FF0303" d="M704.519,59.075c13.915,0,26.229,6.83,33.796,17.312
	c-23.838,2.273-42.484,22.347-42.484,46.78c0,6.754,1.436,13.169,4.001,18.974c-20.806-2.331-36.981-19.973-36.981-41.398
	C662.85,77.732,681.505,59.075,704.519,59.075z"/>
<path opacity="0.1" fill="#FF0303" d="M780.256,94.744c0.295-22.091,18.283-39.911,40.444-39.911
	c14.517,0,27.24,7.649,34.379,19.133c-16.923,6.631-28.913,23.094-28.913,42.368c0,6.521,1.382,12.717,3.854,18.326
	c-2.993,0.706-6.11,1.091-9.319,1.091c-12.401,0-23.493-5.586-30.915-14.372C789.411,111.387,785.924,102.195,780.256,94.744z"/>
<path opacity="0.1" fill="#FF0303" d="M561.504,269.279c0,0.074-0.007,0.146-0.007,0.22c0,14.693,6.798,27.794,17.412,36.349
	c-13.247,3.832-23.675,14.291-27.467,27.553c-9.244-6.566-15.282-17.352-15.282-29.554
	C536.16,287.63,546.813,273.904,561.504,269.279z"/>
<path opacity="0.1" fill="#FF0303" d="M643.095,300.439c7.302-8.235,11.738-19.068,11.738-30.94c0-1.003-0.039-1.996-0.102-2.982
	c6.034-5.064,13.812-8.119,22.308-8.119c7.668,0,14.752,2.491,20.497,6.7c1.782,10.02,6.882,18.888,14.121,25.438
	c0.062,0.854,0.105,1.714,0.105,2.585c0,0.219-0.013,0.435-0.017,0.651c-2.154-0.374-4.37-0.572-6.632-0.572
	c-19.454,0-35.533,14.421-38.15,33.154C654.986,322.728,645.75,312.807,643.095,300.439z"/>
<path opacity="0.1" fill="#FF0303" d="M747.799,301.761c22.031-2.921,39.033-21.767,39.033-44.595c0-1.967-0.138-3.901-0.383-5.802
	c13.311,4.362,22.957,16.795,23.156,31.518c-17.924,1.725-32.135,16.116-33.592,34.116c-0.018,0-0.033,0.001-0.051,0.001
	C764.176,316.999,753.811,310.935,747.799,301.761z"/>
<path opacity="0.1" fill="#FF0303" d="M565.774,162.084c8.166,9.853,20.11,16.456,33.619,17.576
	c2.525,4.045,4.296,8.607,5.122,13.492c-5.721-2.978-12.221-4.664-19.117-4.664c-22.368,0-40.593,17.7-41.455,39.856
	c-8.353-6.858-13.682-17.263-13.682-28.914C530.262,179.41,545.996,163.064,565.774,162.084z"/>
<path opacity="0.1" fill="#FF0303" d="M639.855,191.399c0-19.913,16.145-36.059,36.061-36.059c16.237,0,29.964,10.736,34.48,25.494
	c-1.684-0.216-3.399-0.331-5.142-0.331c-22.101,0-40.016,17.916-40.016,40.014c0,1.845,0.127,3.66,0.369,5.438
	C650.717,221.521,639.855,207.731,639.855,191.399z"/>
<path opacity="0.1" fill="#FF0303" d="M810.518,173.687c-18.211,3.068-32.087,18.902-32.087,37.985c0,2.633,0.266,5.204,0.769,7.688
	c-0.536,0.025-1.075,0.041-1.618,0.041c-19.177,0-34.723-15.547-34.723-34.723c0-5.231,1.163-10.188,3.235-14.636
	c14.559-0.999,27.288-8.624,35.205-19.886C794.989,151.613,806.295,161.028,810.518,173.687z"/>
<path opacity="0.1" fill="#FF0303" d="M562.378,49.28c13.009,0,24.51,6.425,31.525,16.269c-4.254-1.413-8.801-2.185-13.53-2.185
	c-23.72,0-42.947,19.229-42.947,42.946c0,4.456,0.686,8.75,1.945,12.789c-9.521-7.05-15.695-18.362-15.695-31.118
	C523.676,66.607,541.004,49.28,562.378,49.28z"/>
<path opacity="0.1" fill="#FF0303" d="M662.85,100.742c0,6.87,1.67,13.346,4.615,19.058c-8.057-1.584-15.189-5.74-20.503-11.584
	c-1.695-3.248-3.741-6.282-6.092-9.051c-2.351-4.905-3.668-10.399-3.668-16.201c0-20.735,16.811-37.548,37.55-37.548
	c11.67,0,22.097,5.326,28.984,13.68C681.085,59.513,662.85,77.994,662.85,100.742z"/>
<path opacity="0.1" fill="#FF0303" d="M780.256,94.744c-8.386-11.026-21.531-18.22-36.375-18.547
	c1.577-18.681,17.229-33.355,36.318-33.355c11.564,0,21.863,5.39,28.543,13.789C792.405,61.68,780.496,76.804,780.256,94.744z"/>
</svg>
